<svg width="1327" height="439" viewBox="0 0 1327 439" fill="none" xmlns="http://www.w3.org/2000/svg">
<mask id="mask0_5103_16072" style="mask-type:luminance" maskUnits="userSpaceOnUse" x="21" y="22" width="386" height="386">
<path d="M214.01 22.9697C107.77 22.9697 21.6504 109.08 21.6504 215.31C21.6504 321.54 107.77 407.66 214.01 407.66C320.25 407.66 406.37 321.55 406.37 215.32C406.37 109.09 320.25 22.9697 214.01 22.9697Z" fill="white"/>
</mask>
<g mask="url(#mask0_5103_16072)">
<path d="M364.831 19.5996H63.1805C38.3805 19.5996 18.2705 39.6996 18.2705 64.5096V366.12C18.2705 390.92 38.3805 411.03 63.1805 411.03H364.821C389.611 411.03 409.731 390.92 409.731 366.12V64.5096C409.731 39.7096 389.611 19.5996 364.821 19.5996H364.831Z" fill="#FAED14"/>
<path d="M214.001 253.47C258.941 253.47 295.371 217.04 295.371 172.1C295.371 127.16 258.941 90.7397 214.001 90.7397C169.061 90.7397 132.631 127.17 132.631 172.1C132.631 217.03 169.061 253.47 214.001 253.47Z" fill="white"/>
<path d="M215 80.0495C215 79.4695 214.53 78.9995 213.95 78.9995C213.37 78.9995 212.9 79.4695 212.9 80.0495V139.63C212.9 140.21 213.37 140.68 213.95 140.68C214.53 140.68 215 140.21 215 139.63V80.0495Z" fill="#BC2030"/>
<path d="M279.3 109.68H279.28C279.17 109.79 278.62 110.22 277.68 110.83C273.11 113.74 259.31 120.63 242.21 110.41C226.82 101.23 217.72 111.49 215.46 114.57C215.44 114.59 215.44 114.6 215.44 114.6H215.42C215.07 115.07 214.9 115.38 214.9 115.38V83.4897C214.9 83.4897 215.07 83.3297 215.42 83.1097C218.02 81.2097 230.16 73.4397 244.32 82.7397C264.25 95.8597 275.3 88.5997 281.38 81.1397C281.08 82.1297 276.03 98.0497 261.67 101.65C261.67 101.65 267.95 113.38 279.31 109.67L279.3 109.68Z" fill="#E92729"/>
<path d="M277.66 110.84C273.1 113.75 259.29 120.64 242.19 110.42C226.8 101.24 217.7 111.5 215.44 114.58C216.08 113.05 226.49 89.9998 255.07 106.14C268.75 112.74 275.06 111.96 277.66 110.81V110.83V110.84Z" fill="#BC2030"/>
<path d="M294.671 360.41H133.291V459.02H294.671V360.41Z" fill="#EF474B"/>
<path d="M233.751 172.85C233.751 173.65 233.591 174.43 233.271 175.19C233.151 175.47 233.011 175.75 232.841 176.03C232.531 176.56 232.141 177.07 231.681 177.56H229.201L213.721 177.64L196.611 177.72C196.081 177.17 195.641 176.59 195.311 175.99C194.781 175.05 194.491 174.06 194.491 173.04C194.471 169.49 197.791 166.34 202.861 164.44L202.721 164.42C202.721 164.42 209.871 162.39 208.641 159.05C207.421 155.71 201.091 155.41 205.881 147.86C209.341 142.43 212.181 138.47 213.481 136.69C213.651 136.47 213.791 136.28 213.901 136.12C213.901 136.12 213.901 136.12 213.901 136.13C213.921 136.15 213.951 136.19 213.991 136.25C214.011 136.27 214.021 136.3 214.041 136.32C214.061 136.34 214.071 136.37 214.091 136.39C214.161 136.49 214.241 136.59 214.321 136.7C214.551 137.01 214.831 137.38 215.151 137.82C215.191 137.87 215.231 137.92 215.261 137.97C215.451 138.24 215.661 138.52 215.881 138.82C216.191 139.25 216.521 139.71 216.871 140.2C218.281 142.18 220.051 144.75 222.021 147.78C226.681 154.96 221.101 155.6 219.571 158.58C219.501 158.72 219.431 158.86 219.391 159C218.821 160.6 220.171 161.89 221.731 162.8C221.771 162.82 221.801 162.84 221.841 162.86C223.511 163.8 225.371 164.32 225.371 164.32H225.251C229.001 165.7 231.811 167.75 233.031 170.15C233.481 171.02 233.721 171.93 233.721 172.87L233.751 172.85Z" fill="#EF474C"/>
<path d="M233.641 172.939C233.641 173.359 233.601 173.769 233.531 174.179C233.471 174.519 233.381 174.859 233.271 175.189C233.181 175.479 233.061 175.769 232.921 176.049C232.661 176.599 232.331 177.129 231.941 177.639H203.711C203.041 176.759 202.551 175.819 202.281 174.829C202.251 174.729 202.221 174.619 202.201 174.509C202.081 174.009 202.021 173.479 202.021 172.959C202.021 169.699 204.271 166.799 207.811 164.879C208.401 164.559 209.02 164.269 209.68 164.009V163.989C209.68 163.989 210.941 163.599 212.141 162.819C212.261 162.739 212.39 162.649 212.51 162.559C213.68 161.709 214.661 160.469 214.191 158.849C213.901 157.809 213.221 157.029 212.501 156.259C210.861 154.509 208.311 152.539 210.741 147.839C213.181 143.119 213.951 142.009 214.061 138.899C214.091 138.049 214.141 136.999 213.911 136.109H213.921C213.921 136.109 213.97 136.179 214.01 136.239C214.03 136.259 214.041 136.289 214.061 136.309C214.081 136.329 214.091 136.349 214.111 136.379C214.331 136.659 214.7 137.159 215.18 137.809C215.22 137.859 215.26 137.909 215.29 137.959C215.48 138.229 215.691 138.509 215.911 138.809C216.221 139.239 216.55 139.699 216.9 140.199C218.47 142.399 220.421 145.199 222.101 147.819C226.721 154.999 221.171 155.629 219.601 158.579C219.531 158.719 219.461 158.859 219.421 158.999C219.421 158.999 219.421 159.009 219.411 159.019C218.841 160.589 220.11 161.859 221.62 162.769C221.62 162.769 221.621 162.769 221.631 162.769C221.661 162.789 221.7 162.809 221.73 162.829C221.73 162.829 221.82 162.839 221.87 162.859C225.75 163.529 229.05 165.159 231.15 167.329C231.98 168.189 232.631 169.139 233.051 170.139C233.271 170.639 233.421 171.169 233.521 171.699C233.601 172.109 233.631 172.519 233.631 172.939H233.641Z" fill="#EF474C"/>
<path d="M278.911 362.11H149.031C149.031 362.11 149.031 362.05 149.031 361.94C149.031 361.86 149.031 361.74 149.041 361.6C149.041 361.55 149.041 361.5 149.041 361.45C149.041 361.3 149.041 361.14 149.061 360.95C149.061 360.71 149.081 360.44 149.091 360.13C149.091 360.07 149.091 360.01 149.091 359.94C149.141 358.59 149.221 356.64 149.361 354.18C149.371 353.95 149.381 353.71 149.401 353.46C149.401 353.34 149.411 353.22 149.421 353.09C149.431 352.84 149.451 352.59 149.461 352.33C149.471 352.07 149.491 351.81 149.501 351.54C149.591 350 149.691 348.33 149.801 346.52C149.811 346.4 149.821 346.27 149.831 346.14C149.911 344.89 150.001 343.58 150.091 342.21C150.111 341.89 150.131 341.57 150.161 341.25C150.201 340.72 150.241 340.18 150.281 339.63C150.321 339.08 150.371 338.53 150.411 337.96C150.471 337.21 150.521 336.45 150.591 335.67C150.591 335.64 150.591 335.61 150.591 335.58C150.711 334.05 150.851 332.48 150.981 330.85C151.071 329.82 151.161 328.77 151.261 327.69C151.321 327.05 151.381 326.39 151.441 325.74C151.691 323.12 151.951 320.41 152.261 317.62C152.511 315.29 152.771 312.91 153.051 310.47C153.101 310.02 153.161 309.56 153.211 309.1C153.211 309.07 153.211 309.04 153.221 309.01C153.301 308.37 153.371 307.73 153.451 307.08C153.521 306.55 153.581 306.01 153.651 305.48C153.701 305.07 153.751 304.66 153.811 304.24C154.041 302.35 154.291 300.42 154.561 298.48C155.051 294.9 155.581 291.26 156.151 287.58C156.231 287.06 156.311 286.53 156.401 286C156.481 285.48 156.571 284.95 156.651 284.42C156.701 284.13 156.741 283.84 156.791 283.54C156.811 283.42 156.831 283.31 156.851 283.19C156.881 283.01 156.911 282.83 156.941 282.65C157.061 281.9 157.191 281.15 157.321 280.4C157.451 279.62 157.581 278.84 157.731 278.06C157.821 277.53 157.921 277 158.021 276.46C158.151 275.7 158.291 274.95 158.431 274.19C158.701 272.72 158.981 271.25 159.261 269.77C159.341 269.33 159.431 268.9 159.521 268.46C159.681 267.63 159.841 266.81 160.021 265.99C160.181 265.21 160.341 264.43 160.501 263.66C160.611 263.13 160.721 262.59 160.841 262.06C160.951 261.53 161.071 261 161.191 260.47C161.421 259.4 161.661 258.35 161.901 257.29C162.441 254.9 163.001 252.54 163.591 250.19C163.791 249.41 163.991 248.63 164.191 247.85C164.461 246.82 164.731 245.78 165.011 244.75C165.131 244.28 165.261 243.82 165.391 243.35C165.401 243.3 165.421 243.25 165.431 243.21C165.671 242.33 165.921 241.45 166.171 240.57C166.301 240.11 166.441 239.65 166.571 239.2C166.671 238.86 166.771 238.53 166.861 238.19C167.061 237.52 167.261 236.85 167.471 236.19C167.981 234.53 168.501 232.89 169.031 231.27C169.191 230.8 169.341 230.33 169.501 229.87C169.581 229.62 169.671 229.37 169.751 229.12C169.951 228.54 170.151 227.96 170.351 227.38C170.451 227.11 170.541 226.84 170.641 226.56C170.771 226.19 170.901 225.83 171.031 225.46C171.051 225.41 171.071 225.35 171.091 225.3C171.241 224.88 171.401 224.47 171.561 224.05C171.641 223.82 171.731 223.59 171.821 223.36C171.991 222.89 172.171 222.44 172.351 221.98C172.441 221.75 172.531 221.52 172.621 221.29C172.901 220.58 173.181 219.88 173.461 219.18C173.541 218.98 173.621 218.77 173.701 218.57C173.821 218.28 173.941 217.99 174.071 217.7C174.791 215.97 175.541 214.29 176.301 212.65C176.421 212.38 176.551 212.11 176.681 211.85C176.841 211.5 177.011 211.15 177.181 210.82C177.231 210.72 177.271 210.63 177.311 210.54C177.661 209.81 178.031 209.08 178.391 208.37C183.861 197.72 190.331 189.24 198.001 184.27C202.841 181.13 208.151 179.39 213.991 179.39C218.951 179.39 223.531 180.65 227.761 182.96C227.781 182.97 227.791 182.98 227.811 182.99C227.811 182.99 227.811 182.99 227.821 182.99C228.171 183.18 228.501 183.37 228.841 183.56C228.871 183.58 228.901 183.6 228.931 183.62C229.271 183.83 229.601 184.03 229.921 184.24C229.921 184.24 229.941 184.26 229.951 184.26C229.971 184.28 229.991 184.29 230.021 184.31C230.361 184.53 230.681 184.75 231.011 184.98C231.031 185 231.061 185.02 231.091 185.04C231.431 185.27 231.751 185.51 232.091 185.76C232.091 185.77 232.101 185.77 232.111 185.78C234.501 187.59 236.771 189.75 238.931 192.22C239.761 193.16 240.571 194.16 241.371 195.19C241.491 195.33 241.601 195.48 241.711 195.63C241.831 195.79 241.951 195.95 242.061 196.11C242.361 196.52 242.671 196.93 242.961 197.35C243.751 198.47 244.531 199.63 245.281 200.83C246.771 203.19 248.201 205.71 249.561 208.37C249.691 208.64 249.831 208.9 249.971 209.16C250.221 209.67 250.481 210.18 250.731 210.69C251.191 211.62 251.631 212.58 252.081 213.54C252.421 214.29 252.751 215.05 253.091 215.82C253.101 215.85 253.121 215.89 253.141 215.93C253.521 216.8 253.891 217.69 254.261 218.58C254.631 219.47 254.981 220.37 255.351 221.28C255.761 222.32 256.171 223.39 256.551 224.47C256.821 225.19 257.081 225.91 257.351 226.64C257.381 226.73 257.401 226.81 257.441 226.89C257.711 227.64 257.971 228.4 258.231 229.16C258.301 229.36 258.361 229.56 258.441 229.76C259.081 231.68 259.711 233.62 260.321 235.6C260.321 235.62 260.331 235.63 260.331 235.65C260.941 237.63 261.541 239.66 262.111 241.69C262.151 241.86 262.211 242.05 262.261 242.24C263.641 247.16 264.901 252.2 266.061 257.29C266.261 258.22 266.481 259.16 266.691 260.1C266.711 260.22 266.741 260.34 266.771 260.46C267.001 261.52 267.231 262.58 267.451 263.65C267.671 264.72 267.901 265.78 268.101 266.85C268.321 267.92 268.521 268.98 268.731 270.06C268.941 271.13 269.141 272.19 269.341 273.26C269.511 274.21 269.691 275.15 269.861 276.1C270.471 279.51 271.041 282.91 271.581 286.29C271.731 287.24 271.881 288.2 272.021 289.15C272.181 290.21 272.331 291.24 272.491 292.29C272.791 294.37 273.091 296.44 273.371 298.48C273.391 298.66 273.411 298.84 273.451 299.03C273.691 300.83 273.921 302.61 274.141 304.36C274.411 306.52 274.661 308.64 274.911 310.73C275.071 312.11 275.221 313.46 275.371 314.8C275.521 316.22 275.671 317.63 275.811 319C275.851 319.47 275.911 319.93 275.951 320.38C276.131 322.21 276.311 324 276.471 325.74C276.511 326.18 276.561 326.61 276.591 327.04C276.641 327.48 276.671 327.9 276.711 328.33C276.771 329.04 276.841 329.75 276.901 330.45C276.901 330.51 276.911 330.57 276.911 330.63C277.101 332.78 277.271 334.85 277.421 336.83C277.441 337.21 277.471 337.59 277.511 337.96C277.571 338.72 277.631 339.45 277.671 340.17C277.731 340.89 277.771 341.61 277.821 342.3C277.871 342.99 277.921 343.68 277.961 344.34C277.981 344.66 278.001 344.99 278.021 345.32C278.101 346.48 278.181 347.6 278.241 348.65C278.261 349.01 278.271 349.35 278.291 349.7C278.291 349.72 278.291 349.74 278.301 349.75C278.311 350.06 278.331 350.37 278.351 350.68C278.381 351.25 278.411 351.79 278.451 352.33C278.451 352.39 278.451 352.45 278.451 352.51C278.451 352.57 278.451 352.62 278.461 352.68V352.8C278.511 353.71 278.551 354.55 278.591 355.33C278.601 355.36 278.601 355.4 278.601 355.43C278.621 355.78 278.631 356.13 278.641 356.46C278.651 356.66 278.661 356.86 278.671 357.06C278.681 357.39 278.701 357.71 278.721 358.01C278.721 358.09 278.721 358.18 278.721 358.26C278.721 358.33 278.721 358.39 278.721 358.45C278.721 358.51 278.721 358.57 278.721 358.63C278.731 358.8 278.731 358.95 278.741 359.1C278.751 359.16 278.751 359.22 278.751 359.27C278.751 359.32 278.751 359.37 278.761 359.41C278.761 359.53 278.761 359.65 278.771 359.77V359.93C278.781 360.05 278.781 360.16 278.791 360.27V360.39C278.791 360.49 278.791 360.59 278.791 360.68V360.79C278.791 360.84 278.791 360.89 278.791 360.94C278.791 360.96 278.791 360.98 278.791 361.01C278.791 361.09 278.801 361.15 278.801 361.22V361.34C278.801 361.4 278.811 361.45 278.811 361.5V361.68C278.821 361.95 278.821 362.09 278.821 362.09L278.911 362.11Z" fill="#EF474C"/>
<path d="M213.97 199.1C264.82 199.1 269.19 362.14 269.19 362.14H158.74C158.74 362.14 163.11 199.1 213.96 199.1H213.97Z" fill="#FAED14"/>
<path d="M213.98 207.95C265.11 207.95 269.5 363.41 269.5 363.41H158.46C158.46 363.41 162.85 207.95 213.98 207.95Z" fill="#EF474C"/>
<path d="M294.681 362.15L294.991 395.74L279.821 398.5L278.931 362.12C278.931 362.12 278.931 361.98 278.921 361.71C278.921 361.61 278.911 361.49 278.911 361.37C278.901 361.22 278.901 361.03 278.891 360.82C278.881 360.57 278.871 360.27 278.861 359.95C278.851 359.7 278.841 359.42 278.831 359.12C278.821 358.97 278.821 358.82 278.811 358.65C278.791 358.17 278.771 357.64 278.751 357.08C278.741 356.88 278.731 356.69 278.721 356.48C278.701 356.13 278.691 355.75 278.671 355.35C278.621 354.57 278.581 353.73 278.541 352.82C278.531 352.67 278.521 352.51 278.521 352.35C278.491 351.81 278.461 351.27 278.421 350.7C278.401 350.38 278.391 350.05 278.371 349.72C278.281 348.35 278.201 346.9 278.101 345.34C278.081 345.02 278.051 344.69 278.041 344.36C278.001 343.69 277.951 343.01 277.901 342.32C277.851 341.63 277.801 340.91 277.751 340.19C277.711 339.47 277.651 338.73 277.591 337.98C277.561 337.6 277.531 337.23 277.501 336.85C277.281 334.17 277.061 331.32 276.781 328.35C276.731 327.92 276.701 327.5 276.661 327.06C276.631 326.63 276.581 326.2 276.541 325.76C276.381 324.02 276.201 322.23 276.021 320.4C275.981 319.95 275.921 319.49 275.881 319.02C275.741 317.64 275.581 316.23 275.431 314.82C275.291 313.48 275.141 312.13 274.971 310.75C274.721 308.66 274.471 306.54 274.201 304.38C273.971 302.63 273.741 300.85 273.511 299.05C273.481 298.87 273.461 298.69 273.431 298.5C273.151 296.46 272.851 294.39 272.551 292.31C272.401 291.26 272.241 290.23 272.081 289.17C271.941 288.22 271.791 287.26 271.631 286.3C271.101 282.93 270.521 279.52 269.911 276.11C269.741 275.16 269.561 274.21 269.391 273.27C269.191 272.2 268.981 271.14 268.781 270.07C268.571 268.99 268.371 267.93 268.151 266.86C267.941 265.79 267.721 264.73 267.501 263.66C267.271 262.59 267.041 261.53 266.821 260.47C266.801 260.34 266.771 260.22 266.741 260.11C266.531 259.16 266.321 258.22 266.111 257.29C264.951 252.19 263.691 247.15 262.311 242.23C262.261 242.05 262.201 241.86 262.161 241.68C261.591 239.64 261.001 237.62 260.381 235.64C260.381 235.62 260.371 235.61 260.371 235.59C259.761 233.62 259.131 231.67 258.491 229.75C258.411 229.55 258.351 229.35 258.281 229.15C258.021 228.39 257.761 227.64 257.491 226.88C257.461 226.8 257.441 226.71 257.401 226.63C257.141 225.91 256.881 225.18 256.611 224.46C256.221 223.38 255.821 222.32 255.401 221.27C255.041 220.36 254.681 219.46 254.311 218.57C253.941 217.68 253.571 216.79 253.191 215.92C253.181 215.88 253.161 215.84 253.151 215.81C252.811 215.04 252.471 214.28 252.141 213.53C251.701 212.56 251.251 211.6 250.791 210.67C250.541 210.15 250.281 209.64 250.031 209.14C249.901 208.88 249.761 208.61 249.621 208.35C290.741 227.72 294.691 360.73 294.731 362.12H294.721L294.681 362.15Z" fill="#D92E2D"/>
<path d="M178.381 208.38C151.911 259.91 149.031 362.11 149.031 362.11L147.821 398.46L125.091 395.05L129.491 362.15C129.491 362.15 137.051 227.84 178.371 208.37L178.381 208.38Z" fill="#D92E2D"/>
<path d="M238.97 179.85C238.97 181.65 235.74 183.26 229.95 184.28C226.7 184.85 222.65 185.24 217.91 185.38C216.65 185.42 215.34 185.44 213.98 185.44C207.52 185.44 202.11 185.01 197.99 184.28C192.21 183.26 188.98 181.65 188.98 179.85C188.98 178.35 191.22 176.98 195.31 175.98C197.24 175.51 199.57 175.11 202.28 174.82C204.78 174.55 207.6 174.37 210.71 174.3C211.76 174.27 212.86 174.26 213.97 174.26C222.08 174.26 228.53 174.94 232.84 176.03C232.87 176.03 232.89 176.05 232.92 176.05C236.83 177.05 238.97 178.38 238.97 179.85Z" fill="#EF474C"/>
<path d="M206.861 174.37C194.251 174.93 189.611 177.19 189.421 179.85C189.241 182.44 192.491 185.43 203.451 185C201.591 184.61 200.551 183.94 199.561 182.7C196.511 178.86 199.841 174.96 206.861 174.37Z" fill="#EF474C"/>
<path opacity="0.7" d="M312.23 422.46H189.47V422.42L128.69 398.97C128.69 398.97 203.73 445.51 248.22 370.28C259.95 350.45 252.96 299.07 249.75 287.35C244.59 268.53 248.67 260.07 252.4 251.72C252.75 250.95 253.09 250.18 253.42 249.41C255.57 244.38 257.27 239.049 256.48 231.24C255.95 225.979 254.34 220.89 251.88 216.21C249.15 211.01 244.49 202.99 238.73 196.57C231.52 188.53 224.64 186.19 219.98 185.51C219.28 185.45 218.59 185.41 217.9 185.36C217.54 185.34 217.18 185.32 216.82 185.3L207.9 185.16L221.28 183.93C223.34 183.56 230.46 182.29 230.21 179.08C229.92 175.33 210.7 174.28 210.7 174.28L208.97 174.17L227.37 173.97C227.95 172.93 228.3 171.69 228.13 170.27C227.61 166.11 223.75 164.25 221.62 162.75C221.65 162.77 221.69 162.79 221.72 162.81C221.72 162.81 221.81 162.83 221.86 162.84C225.74 163.51 229.04 165.14 231.14 167.31C231.97 168.17 232.62 169.12 233.04 170.12C233.49 170.99 233.73 171.9 233.73 172.84C233.73 173.65 233.57 174.43 233.25 175.18C233.16 175.47 233.04 175.76 232.9 176.04C236.81 177.04 238.95 178.37 238.95 179.84C238.95 181.65 235.72 183.25 229.93 184.27C229.95 184.29 229.98 184.3 230 184.32C230.34 184.54 230.66 184.76 230.99 184.99C231.01 185.01 231.04 185.03 231.07 185.05C231.41 185.28 231.73 185.52 232.07 185.77C232.07 185.78 232.08 185.78 232.09 185.79C234.48 187.6 236.75 189.76 238.91 192.22C239.75 193.19 240.56 194.18 241.34 195.19C241.46 195.33 241.57 195.48 241.68 195.63C241.84 195.83 241.99 196.03 242.14 196.22C242.11 196.18 242.07 196.14 242.04 196.1C241.58 195.58 241.11 195.06 240.63 194.54C242.01 196.2 243.33 198.06 244.69 199.99C244.88 200.26 245.07 200.54 245.26 200.82C246.93 203.29 248.35 205.88 249.55 208.37C254.58 210.94 259.08 215 263.1 220.23C282.06 244.9 288.48 300.16 297.12 339.87C297.41 344.1 312.21 422.12 312.22 422.46H312.23Z" fill="#840D1C" fill-opacity="0.6"/>
<path d="M302.281 343.82L314.231 341.3L317.651 343.54C317.651 343.54 335.851 379.75 344.701 447.38L335.331 449.28L328.751 446.55L296.561 348.1L302.281 343.81V343.82Z" fill="#A21E21"/>
<path d="M295.231 324.01C295.301 324.01 296.271 323.99 297.361 324.39L290.281 325.3C287.391 324.32 286.831 321.18 286.581 319.41C286.201 316.82 286.581 300.5 286.581 300.51C286.581 300.49 289.251 309.3 293.031 314.67C295.651 318.39 298.021 320.42 298.021 320.42C297.631 323.11 295.351 323.97 295.231 324.01Z" fill="#A21E21"/>
<path d="M288.571 328.359C289.021 327.019 290.231 325.119 290.231 325.119C289.311 324.849 289.721 324.429 289.111 323.979H299.581C302.991 324.289 304.851 324.559 307.571 325.599C311.801 327.219 313.361 329.939 312.811 332.779C312.331 335.209 309.761 337.689 305.921 339.549L306.141 340.799L314.221 341.299C314.461 341.909 329.981 380.179 333.991 448.739C334.011 449.009 334.021 449.279 334.041 449.549L300.071 450.719L298.641 453.989C298.671 453.589 298.631 452.479 298.541 450.759C297.581 432.149 290.531 342.709 290.531 342.709L291.901 342.269L291.951 341.239C286.071 336.269 287.421 331.729 288.561 328.359H288.571Z" fill="#A21E21"/>
<path d="M290.01 342.03L290.17 342.86L296.21 341.17C296.21 341.17 291.33 341.16 289.06 338.04L288.65 340.24C288.65 340.24 289.16 341.58 289.22 341.62C289.28 341.66 290.03 342.03 290.03 342.03H290.01Z" fill="#B62027"/>
<path d="M126.451 343.82L114.501 341.3L111.081 343.54C111.081 343.54 92.8805 379.75 84.0305 447.38L93.4005 449.28L99.9805 446.55L132.171 348.1L126.451 343.81V343.82Z" fill="#EF474C"/>
<path d="M133.49 324.01C133.42 324.01 132.45 323.99 131.36 324.39L138.44 325.3C141.33 324.32 141.89 321.18 142.14 319.41C142.52 316.82 142.14 300.5 142.14 300.51C142.14 300.5 139.47 309.3 135.69 314.67C133.07 318.39 130.7 320.42 130.7 320.42C131.09 323.11 133.37 323.97 133.49 324.01Z" fill="#EF474C"/>
<path d="M140.17 328.359C139.72 327.019 138.51 325.119 138.51 325.119C139.43 324.849 139.02 324.429 139.63 323.979H129.16C125.75 324.289 123.89 324.559 121.17 325.599C116.94 327.219 115.38 329.939 115.94 332.779C116.42 335.209 118.99 337.689 122.83 339.549L122.61 340.799L114.53 341.299C114.29 341.909 98.7705 380.179 94.7605 448.739C94.7405 449.009 94.7304 449.279 94.7104 449.549L128.68 450.719L130.11 453.989C130.08 453.589 130.12 452.479 130.21 450.759C131.17 432.149 138.22 342.709 138.22 342.709L136.85 342.269L136.8 341.239C142.68 336.269 141.33 331.729 140.19 328.359H140.17Z" fill="#EF474C"/>
<path d="M138.711 342.03L138.551 342.86L132.521 341.17C132.521 341.17 137.401 341.16 139.671 338.04L140.081 340.24C140.081 340.24 139.571 341.58 139.511 341.62C139.451 341.66 138.701 342.03 138.701 342.03H138.711Z" fill="#D92E2D"/>
<path d="M196.581 317.879L202.401 312.059L206.441 316.099L196.711 325.829C195.001 327.539 196.211 330.469 198.631 330.469C199.351 330.469 200.041 330.18 200.551 329.67L210.281 319.95L216.851 326.51V327.749C216.851 329.249 218.071 330.469 219.571 330.469C221.071 330.469 222.291 329.249 222.291 327.749V307.649H229.061V327.749C229.061 329.249 230.281 330.469 231.781 330.469C233.281 330.469 234.501 329.249 234.501 327.749V307.649H235.431C236.931 307.649 238.151 306.429 238.151 304.929C238.151 303.429 236.941 302.209 235.431 302.209H234.501V298.659C234.501 293.459 229.981 289.299 224.661 289.899C220.171 290.409 216.871 294.37 216.871 298.89V302.2H214.281C214.281 302.2 213.761 303.849 213.321 304.829C212.681 306.289 210.981 307.629 210.981 307.629H216.861V318.809L206.251 308.2L208.641 305.809C210.081 304.369 211.091 302.529 211.371 300.519C211.861 296.909 210.241 293.44 207.061 291.48C206.321 291.03 205.521 290.69 204.681 290.48C200.681 289.51 196.731 291.15 194.591 294.67C194.141 295.41 193.811 296.219 193.621 297.059C192.871 300.259 193.791 303.43 196.011 305.64L198.571 308.2L192.761 314.01C191.701 315.07 191.701 316.789 192.761 317.849C193.821 318.909 195.541 318.909 196.601 317.849L196.581 317.879ZM222.281 298.67C222.281 296.57 224.201 294.909 226.371 295.359C227.961 295.679 229.051 297.179 229.051 298.809V302.219H222.281V298.67ZM199.841 296.719C200.521 296.039 201.431 295.659 202.401 295.659C203.371 295.659 204.271 296.039 204.961 296.719C205.841 297.599 206.211 298.869 205.921 300.149C205.761 300.819 205.381 301.419 204.891 301.909L202.411 304.39L199.931 301.909C199.441 301.419 199.051 300.819 198.901 300.149C198.601 298.869 198.971 297.609 199.861 296.719H199.841Z" fill="#895221"/>
<path d="M194.541 314.48L200.361 308.66L204.401 312.7L194.671 322.43C192.961 324.14 194.171 327.07 196.591 327.07C197.311 327.07 198.001 326.78 198.511 326.28L208.241 316.56L214.811 323.12V324.36C214.811 325.86 216.021 327.08 217.531 327.08C219.041 327.08 220.251 325.86 220.251 324.36V304.26H227.021V324.36C227.021 325.86 228.241 327.08 229.741 327.08C231.241 327.08 232.461 325.86 232.461 324.36V304.26H233.391C234.891 304.26 236.111 303.04 236.111 301.54C236.111 300.04 234.891 298.82 233.391 298.82H232.461V295.27C232.461 290.07 227.931 285.91 222.621 286.51C218.131 287.02 214.831 290.98 214.831 295.5V298.81H212.241C212.241 298.81 211.721 300.46 211.281 301.44C210.631 302.9 208.941 304.24 208.941 304.24H214.821V315.42L204.211 304.81L206.601 302.42C208.041 300.98 209.051 299.14 209.331 297.13C209.821 293.52 208.191 290.05 205.021 288.09C204.281 287.64 203.481 287.3 202.641 287.09C198.641 286.12 194.691 287.76 192.561 291.28C192.111 292.02 191.781 292.83 191.591 293.68C190.841 296.88 191.761 300.05 193.981 302.26L196.541 304.81L190.721 310.63C189.661 311.69 189.661 313.41 190.721 314.47C191.781 315.53 193.501 315.53 194.561 314.47L194.541 314.48ZM220.231 295.27C220.231 293.17 222.151 291.51 224.321 291.96C225.911 292.28 227.001 293.78 227.001 295.4V298.81H220.231V295.26V295.27ZM197.801 293.32C198.481 292.64 199.391 292.26 200.361 292.26C201.331 292.26 202.231 292.64 202.921 293.32C203.801 294.2 204.171 295.47 203.871 296.75C203.711 297.42 203.331 298.02 202.841 298.51L200.361 300.99L197.881 298.51C197.391 298.02 197.011 297.42 196.851 296.75C196.551 295.47 196.921 294.21 197.811 293.32H197.801Z" fill="#FAED14"/>
</g>
<path d="M531.11 275.94C524.34 273.03 518.53 268.98 513.66 263.78C508.79 258.58 505.19 252.51 502.84 245.58L521.96 237.36C524.98 244.52 529.34 250.14 535.04 254.22C540.74 258.3 547.17 260.34 554.33 260.34C558.36 260.34 561.85 259.7 564.81 258.41C567.77 257.13 570.07 255.36 571.69 253.13C573.31 250.89 574.12 248.21 574.12 245.08C574.12 241.39 573.03 238.37 570.85 236.02C568.67 233.67 565.4 231.77 561.04 230.32L537.05 222.6C527.32 219.58 519.97 215.08 514.99 209.1C510.01 203.12 507.53 195.99 507.53 187.71C507.53 180.55 509.32 174.23 512.9 168.75C516.48 163.27 521.43 158.99 527.75 155.92C534.07 152.85 541.31 151.31 549.47 151.31C556.96 151.31 563.84 152.63 570.1 155.25C576.36 157.88 581.76 161.51 586.29 166.15C590.82 170.79 594.2 176.24 596.44 182.51L577.48 190.9C575.13 184.75 571.47 179.94 566.49 176.47C561.51 173.01 555.84 171.27 549.46 171.27C545.66 171.27 542.3 171.92 539.39 173.2C536.48 174.49 534.22 176.3 532.6 178.65C530.98 181 530.17 183.68 530.17 186.7C530.17 190.17 531.29 193.22 533.53 195.84C535.77 198.47 539.18 200.51 543.76 201.96L566.74 209.17C576.69 212.41 584.16 216.89 589.14 222.59C594.11 228.29 596.6 235.34 596.6 243.73C596.6 250.89 594.75 257.21 591.06 262.69C587.37 268.17 582.28 272.48 575.79 275.61C569.3 278.74 561.7 280.31 552.98 280.31C545.15 280.31 537.85 278.85 531.09 275.95L531.11 275.94Z" fill="#502E17"/>
<path d="M615.07 278.28V187.02H635.87V207.32L634.19 204.3C636.31 197.48 639.64 192.73 644.17 190.04C648.7 187.35 654.15 186.01 660.53 186.01H665.9V205.64H658.02C651.76 205.64 646.72 207.54 642.92 211.34C639.12 215.14 637.22 220.51 637.22 227.44V278.27H615.08L615.07 278.28Z" fill="#502E17"/>
<path d="M677.81 171.76V153.31H699.95V171.76H677.81ZM677.81 276.94V187.02H699.95V278.28L677.81 276.94Z" fill="#502E17"/>
<path d="M754.13 278.28V153.3H776.11L822.91 216.88H812.51L858.31 153.3H880.12V278.28H857.14V179.31L866.03 181.49L818.56 244.73H815.88L769.58 181.49L777.13 179.31V278.28H754.15H754.13Z" fill="#502E17"/>
<path d="M913.24 277.11C908.49 274.99 904.82 271.94 902.25 267.97C899.68 264 898.39 259.39 898.39 254.13C898.39 248.87 899.54 244.6 901.83 240.63C904.12 236.66 907.62 233.33 912.31 230.65C917.01 227.97 922.93 226.07 930.09 224.95L959.78 220.09V236.87L934.28 241.4C929.92 242.18 926.67 243.55 924.55 245.51C922.42 247.47 921.36 250.07 921.36 253.31C921.36 256.55 922.56 258.93 924.97 260.77C927.37 262.62 930.36 263.54 933.95 263.54C938.53 263.54 942.59 262.56 946.11 260.6C949.63 258.64 952.34 255.93 954.25 252.46C956.15 248.99 957.1 245.25 957.1 241.22V217.57C957.1 213.66 955.59 210.39 952.57 207.76C949.55 205.13 945.52 203.82 940.49 203.82C935.79 203.82 931.63 205.11 927.99 207.68C924.35 210.25 921.7 213.55 920.02 217.58L902.07 208.86C903.86 204.05 906.68 199.89 910.54 196.36C914.4 192.83 918.95 190.07 924.21 188.06C929.47 186.05 935.17 185.04 941.32 185.04C948.81 185.04 955.41 186.41 961.11 189.15C966.81 191.89 971.26 195.72 974.45 200.64C977.64 205.56 979.23 211.21 979.23 217.58V278.31H958.43V262.71L963.13 262.54C960.78 266.34 957.96 269.59 954.66 272.27C951.36 274.95 947.67 276.97 943.59 278.31C939.51 279.65 934.95 280.32 929.92 280.32C923.55 280.32 917.98 279.26 913.23 277.13L913.24 277.11Z" fill="#502E17"/>
<path d="M999.38 278.28V187.02H1020.18V204.97L1018.5 201.78C1020.62 196.3 1024.12 192.13 1028.98 189.28C1033.84 186.43 1039.52 185 1046.01 185C1052.5 185 1058.68 186.45 1063.88 189.36C1069.08 192.27 1073.13 196.32 1076.04 201.52C1078.95 206.72 1080.4 212.73 1080.4 219.55V278.26H1058.42V224.75C1058.42 220.72 1057.64 217.26 1056.07 214.35C1054.5 211.44 1052.32 209.21 1049.53 207.64C1046.73 206.08 1043.55 205.29 1039.97 205.29C1036.39 205.29 1033.2 206.07 1030.41 207.64C1027.61 209.21 1025.43 211.44 1023.87 214.35C1022.3 217.26 1021.52 220.72 1021.52 224.75V278.26H999.38V278.28Z" fill="#502E17"/>
<path d="M1117.73 274.01C1110.74 269.82 1105.23 264.09 1101.21 256.82C1097.18 249.55 1095.17 241.5 1095.17 232.66C1095.17 223.82 1097.21 215.66 1101.29 208.5C1105.37 201.34 1110.88 195.64 1117.81 191.39C1124.74 187.14 1132.57 185.02 1141.3 185.02C1148.23 185.02 1154.41 186.39 1159.84 189.13C1165.26 191.87 1169.54 195.7 1172.67 200.62L1169.32 205.15V151.3H1191.3V278.29H1170.5V260.68L1172.85 265.04C1169.72 270.07 1165.36 273.88 1159.77 276.45C1154.18 279.02 1148.08 280.31 1141.48 280.31C1132.64 280.31 1124.73 278.21 1117.74 274.02L1117.73 274.01ZM1156.99 256.64C1160.85 254.29 1163.87 251.05 1166.05 246.91C1168.23 242.77 1169.32 238.02 1169.32 232.65C1169.32 227.28 1168.23 222.7 1166.05 218.56C1163.87 214.42 1160.85 211.18 1156.99 208.83C1153.13 206.48 1148.74 205.31 1143.82 205.31C1138.9 205.31 1134.48 206.48 1130.57 208.83C1126.65 211.18 1123.61 214.42 1121.43 218.56C1119.25 222.7 1118.16 227.4 1118.16 232.65C1118.16 237.9 1119.25 242.77 1121.43 246.91C1123.61 251.05 1126.66 254.29 1130.57 256.64C1134.48 258.99 1138.9 260.16 1143.82 260.16C1148.74 260.16 1153.13 258.99 1156.99 256.64Z" fill="#502E17"/>
<path d="M1211.59 171.76V153.31H1233.73V171.76H1211.59ZM1211.59 276.94V187.02H1233.73V278.28L1211.59 276.94Z" fill="#502E17"/>
<path d="M1253.86 278.28V187.02H1274.66V207.32L1272.98 204.3C1275.1 197.48 1278.43 192.73 1282.96 190.04C1287.49 187.35 1292.94 186.01 1299.32 186.01H1304.69V205.64H1296.81C1290.55 205.64 1285.51 207.54 1281.71 211.34C1277.91 215.14 1276.01 220.51 1276.01 227.44V278.27H1253.87L1253.86 278.28Z" fill="#502E17"/>
</svg>
